<svg width="44" height="44" viewBox="0 0 44 44" fill="none" xmlns="http://www.w3.org/2000/svg">
<circle cx="22" cy="22" r="22" fill="white"/>
<path fill-rule="evenodd" clip-rule="evenodd" d="M16 9.5C16 11.433 14.6569 13 13 13C11.3431 13 10 11.433 10 9.5C10 7.567 11.3431 6 13 6C14.6569 6 16 7.567 16 9.5ZM16 15V34H10V15H16ZM24.0556 15.4697V18.0109C25.1198 16.1826 26.814 15 28.7222 15C31.8215 15 34.3562 18.1196 34.5443 22.0586H34.5556V34.2933H30.6667V22.0586H24.0556V34.2924H19V15.4697H24.0556ZM30.4151 20.2574C30.5812 20.8283 30.6667 21.4402 30.6667 22.0582H27.3611H24.0556C24.0556 21.4402 24.1411 20.8283 24.3072 20.2574C24.4733 19.6865 24.7168 19.1678 25.0237 18.7308C25.3307 18.2938 25.6951 17.9472 26.0961 17.7107C26.4972 17.4743 26.927 17.3525 27.3611 17.3525C27.7952 17.3525 28.2251 17.4743 28.6261 17.7107C29.0271 17.9472 29.3916 18.2938 29.6985 18.7308C30.0054 19.1678 30.2489 19.6865 30.4151 20.2574Z" fill="#D9D9D9"/>
</svg>
