<svg width="1922" height="617" viewBox="0 0 1922 617" fill="none" xmlns="http://www.w3.org/2000/svg">
<path d="M73 398.5L1 421V615.794H1921V2L1807 166L1800.5 175.5L1793 186L1785 197L1776 207L1754 229L1722.5 251L1701.5 263L1679.5 273L1647 286.5L1602 304L1553.5 322L1526 334L1490 354L1446 386.5L1399.5 426.5L1383.5 440.5L1365.5 453.5L1357.5 459L1349 464.5L1340.5 469.5L1332 473.5L1323 478L1313 481.5L1303.5 484L1293.5 486L1283 487.5L1272 488.5H1260.5L1250 488L1241 487L1231 485.5L1215 481L1183.5 470L1142 450L1102 428L1065 408L1030 391.5L993 378L981.75 375.5L970.5 373L959 371.5L948 371L931 371.5L915.5 373L896.5 376.5L878 381L842.5 392.5L789.5 415L730 440L682.5 456.5L672 459.5L661 462L651 464L639.5 465L615 466L591 465L560.5 460L530 452.5L476 434L419.5 410.5L364.5 387.5L323 372.5L255 351L245 349L235.5 347L225.5 346H216L192 350L148 363.5L129.5 372.5L111 382L92.5 390.5L73 398.5Z" stroke="black"/>
</svg>
